<svg xmlns="http://www.w3.org/2000/svg" viewBox="0 0 400 300" width="406" height="306" class="illustration styles_illustrationTablet__1DWOa"><g id="_003" data-name="003"><path d="M356.5,231.33H43.5a.46.46,0,0,1-.46-.46.47.47,0,0,1,.46-.46h313a.47.47,0,0,1,.46.46A.46.46,0,0,1,356.5,231.33Z" fill="#d1d3d4"></path><rect x="66.93" y="44.49" width="272.15" height="166.33" rx="5.37" fill="#fff"></rect><path d="M333.7,211.32H72.3a5.88,5.88,0,0,1-5.87-5.88V49.86A5.87,5.87,0,0,1,72.3,44H333.7a5.87,5.87,0,0,1,5.87,5.87V205.44A5.88,5.88,0,0,1,333.7,211.32ZM72.3,45a4.87,4.87,0,0,0-4.87,4.87V205.44a4.88,4.88,0,0,0,4.87,4.88H333.7a4.88,4.88,0,0,0,4.87-4.88V49.86A4.87,4.87,0,0,0,333.7,45Z" fill="#231f20"></path><path d="M187.75,163.67H82.63a.46.46,0,0,1-.46-.46.47.47,0,0,1,.46-.46H187.75a.47.47,0,0,1,.46.46A.46.46,0,0,1,187.75,163.67Z" fill="#d1d3d4"></path><path d="M139.32,202.34a.46.46,0,0,1-.46-.46V163a.46.46,0,0,1,.46-.46.47.47,0,0,1,.46.46v38.86A.47.47,0,0,1,139.32,202.34Z" fill="#d1d3d4"></path><path d="M320.64,137.77H199.76a.46.46,0,0,1-.46-.46.45.45,0,0,1,.46-.46H320.64a.45.45,0,0,1,.46.46A.46.46,0,0,1,320.64,137.77Z" fill="#d1d3d4"></path><path d="M320.64,149.59H199.76a.45.45,0,0,1-.46-.46.46.46,0,0,1,.46-.46H320.64a.46.46,0,0,1,.46.46A.45.45,0,0,1,320.64,149.59Z" fill="#d1d3d4"></path><path d="M320.64,161.42H199.76a.46.46,0,0,1,0-.92H320.64a.46.46,0,1,1,0,.92Z" fill="#d1d3d4"></path><path d="M320.64,173.25H199.76a.47.47,0,0,1,0-.93H320.64a.47.47,0,0,1,0,.93Z" fill="#d1d3d4"></path><path d="M320.64,185.07H199.76a.46.46,0,0,1,0-.92H320.64a.46.46,0,1,1,0,.92Z" fill="#d1d3d4"></path><path d="M326.84,121.81H187.18a.46.46,0,0,1-.46-.46.47.47,0,0,1,.46-.46H326.84a.47.47,0,0,1,.46.46A.46.46,0,0,1,326.84,121.81Z" fill="#d1d3d4"></path><rect x="199.38" y="77.99" width="48.05" height="32.66" rx="2.08" fill="#1e3a8a"></rect><path d="M187.56,201.4a.45.45,0,0,1-.46-.46V68.56a.46.46,0,0,1,.46-.46.47.47,0,0,1,.46.46V200.94A.46.46,0,0,1,187.56,201.4Z" fill="#d1d3d4"></path><path d="M327.77,68.69h-250a.46.46,0,0,1-.46-.46.47.47,0,0,1,.46-.46h250a.47.47,0,0,1,.47.46A.46.46,0,0,1,327.77,68.69Z" fill="#d1d3d4"></path><path d="M322.62,202.68H83.38a5.88,5.88,0,0,1-5.88-5.87V58.5a5.89,5.89,0,0,1,5.88-5.88H322.62a5.89,5.89,0,0,1,5.88,5.88V196.81A5.88,5.88,0,0,1,322.62,202.68ZM83.38,53.62A4.89,4.89,0,0,0,78.5,58.5V196.81a4.88,4.88,0,0,0,4.88,4.87H322.62a4.88,4.88,0,0,0,4.88-4.87V58.5a4.89,4.89,0,0,0-4.88-4.88Z" fill="#231f20"></path><path d="M230.7,210.87,202,210.8l-28.69.07s-2.53,26-19,37.13h95.41C233.23,236.9,230.7,210.87,230.7,210.87Z" fill="#fff"></path><path d="M249.71,248.5H154.29a.49.49,0,0,1-.47-.35.48.48,0,0,1,.2-.56c16.09-10.84,18.76-36.51,18.79-36.77a.5.5,0,0,1,.5-.45L202,210.3l28.7.07a.51.51,0,0,1,.5.45c0,.26,2.7,25.93,18.79,36.77a.51.51,0,0,1,.2.56A.5.5,0,0,1,249.71,248.5Zm-93.85-1h92.29c-14.2-10.69-17.47-32.71-17.89-36.13L202,211.3l-28.25.07C173.32,214.79,170.06,236.81,155.86,247.5Z" fill="#231f20"></path><rect x="142.21" y="248" width="119.59" height="9.9" rx="4.86" fill="#fff"></rect><path d="M256.94,258.41H147.07a5.37,5.37,0,0,1-5.36-5.36v-.19a5.37,5.37,0,0,1,5.36-5.36H256.94a5.37,5.37,0,0,1,5.36,5.36v.19A5.37,5.37,0,0,1,256.94,258.41ZM147.07,248.5a4.37,4.37,0,0,0-4.36,4.36v.19a4.37,4.37,0,0,0,4.36,4.36H256.94a4.37,4.37,0,0,0,4.36-4.36v-.19a4.37,4.37,0,0,0-4.36-4.36Z" fill="#231f20"></path><circle cx="93.67" cy="61.38" r="3.13" fill="#1e3a8a"></circle><circle cx="105.9" cy="61.38" r="3.13" fill="#231f20"></circle><circle cx="118.14" cy="61.38" r="3.13" fill="#231f20"></circle><path d="M99.39,224.43l8.16,29.95s14.32,3.33,14,4.25S99,262.56,99,262.56L89.55,228" fill="#fff"></path><path d="M99,263.06a.5.5,0,0,1-.48-.37l-9.45-34.6a.49.49,0,0,1,.35-.61.5.5,0,0,1,.61.35L99.37,262c7.34-1,18.47-2.67,21.25-3.47a115,115,0,0,0-13.18-3.66.5.5,0,0,1-.37-.35l-8.16-30a.5.5,0,0,1,1-.26L108,254c5.12,1.2,13.44,3.28,14,4.33a.79.79,0,0,1,.05.5c-.12.36-.41,1.22-23,4.26Zm22.14-4.24h0Zm.06-.52Z" fill="#231f20"></path><path d="M74,214.46l-2.35,45.4s22.37,4.85,22.45,4.27-12-9.21-12-9.21l3.51-32.26" fill="#fff"></path><path d="M93.9,264.64c-1.1,0-5.24-.57-22.4-4.29a.51.51,0,0,1-.4-.52l2.35-45.39a.5.5,0,1,1,1,.05l-2.33,45c6.92,1.5,17.27,3.64,20.7,4.12-2-1.71-7.51-5.69-11.11-8.25a.5.5,0,0,1-.2-.46L85,222.61a.5.5,0,0,1,.55-.45.51.51,0,0,1,.45.56l-3.48,32c12.15,8.64,12.07,9.15,12,9.52a.57.57,0,0,1-.22.35S94.21,264.64,93.9,264.64Z" fill="#231f20"></path><path d="M112.28,254.11l-3,4.6L97.48,260.1l1.16,4.52s26-3.25,26.55-5.62S112.28,254.11,112.28,254.11Z" fill="#231f20"></path><path d="M69.52,260.9l.68-4.64L83.86,260l2.66-3.51s10,7.26,8.64,8.82S79,264.05,69.52,260.9Z" fill="#231f20"></path><path d="M64.94,103.61a5.66,5.66,0,0,1,4,.3A12.36,12.36,0,0,1,78,96.6a26.74,26.74,0,0,1,4.2-.35c2.1,0,4.36.13,6,1.42a6.77,6.77,0,0,1,2,6.87c-1.22,5-5,6.23-8.43,9.06a15.62,15.62,0,0,0-5.31,11.7c0,9.86,3.12,20.76-7.69,26.68-6.89,3.76-16.23.85-20.85-5.5a13.53,13.53,0,0,1-2.26-4.6c-1.13-4.49.83-9.19,3.29-13.11s5-7.47,7.06-11.49c1.78-3.5,2-7.72,4.58-10.86A8.45,8.45,0,0,1,64.94,103.61Z" fill="#fff"></path><path d="M62.05,154.15a18.17,18.17,0,0,1-14.45-7.38A14.07,14.07,0,0,1,45.26,142c-1-3.91.11-8.33,3.35-13.5.71-1.13,1.44-2.24,2.16-3.35a87.83,87.83,0,0,0,4.88-8.1,28.61,28.61,0,0,0,1.62-4.34,18.94,18.94,0,0,1,3-6.61,9,9,0,0,1,4.52-3h0a6.28,6.28,0,0,1,3.94.13A12.75,12.75,0,0,1,78,96.11a27.73,27.73,0,0,1,4.28-.36c2.12,0,4.52.12,6.34,1.52a7.24,7.24,0,0,1,2.21,7.39c-1,4-3.44,5.67-6,7.46-.84.58-1.71,1.18-2.55,1.86a15.09,15.09,0,0,0-5.13,11.31c0,1.79.11,3.65.21,5.45.47,8.2,1,16.69-8.16,21.67A14.61,14.61,0,0,1,62.05,154.15Zm3-50.06a8,8,0,0,0-4,2.64A18,18,0,0,0,58.22,113a28.37,28.37,0,0,1-1.68,4.5,88,88,0,0,1-4.93,8.19c-.72,1.11-1.45,2.22-2.15,3.34-3.09,4.93-4.14,9.09-3.23,12.73a13.07,13.07,0,0,0,2.18,4.42c4.71,6.48,13.78,8.88,20.21,5.36,8.56-4.69,8.12-12.49,7.64-20.75-.1-1.81-.21-3.68-.21-5.49a16.09,16.09,0,0,1,5.5-12.09c.87-.71,1.75-1.32,2.61-1.91,2.56-1.76,4.77-3.28,5.64-6.87.51-2.07.13-4.84-1.84-6.37-1.57-1.21-3.78-1.34-5.71-1.31a24.47,24.47,0,0,0-4.12.35,11.81,11.81,0,0,0-8.68,7,.53.53,0,0,1-.29.26.58.58,0,0,1-.39,0,5.18,5.18,0,0,0-3.7-.27Z" fill="#231f20"></path><path d="M97.62,136.42c-2.22.85-5.87,1.64-6.82-1.44a4.75,4.75,0,0,1-.14-1.68,17.16,17.16,0,0,1,.45-2.46,42.11,42.11,0,0,1,2.34-6.6c.23-.54.69-1.19,1.25-1s.54.78.53,1.28c0,1.39-.23,2.8-.2,4.19,2.94-.75,4.79-3.86,7.59-4.53.79-.18,1.75-.24,1.84.78.1,1.26-2.18,2.25-2.94,2.9a9.2,9.2,0,0,1,2.89-1.68,1.9,1.9,0,0,1,.94-.15.75.75,0,0,1,.64.64,1,1,0,0,1-.34.69,10.16,10.16,0,0,1-1.44,1.34,3.62,3.62,0,0,1,2-1.21,1,1,0,0,1,1.11.31c.33.53-.3,1.13-.84,1.44a3.18,3.18,0,0,1,1.52-.76,1.12,1.12,0,0,1,1.28.86,1.55,1.55,0,0,1-.6,1.15C105.82,133.34,101.34,135,97.62,136.42Z" fill="#fff"></path><path d="M94.07,137.68a4.53,4.53,0,0,1-2-.4,3.37,3.37,0,0,1-1.76-2.15,5,5,0,0,1-.17-1.87,17.51,17.51,0,0,1,.46-2.54A42.31,42.31,0,0,1,93,124c.44-1,1.15-1.52,1.87-1.27.41.14.9.56.87,1.76,0,.6,0,1.2-.1,1.8s-.08,1.13-.1,1.69a12,12,0,0,0,3-2,10.36,10.36,0,0,1,3.92-2.31,2.38,2.38,0,0,1,1.91.15,1.39,1.39,0,0,1,.54,1.07,1.62,1.62,0,0,1-.07.62,1.75,1.75,0,0,1,.56,0,1.25,1.25,0,0,1,1,1.1,1.58,1.58,0,0,1,0,.32,1.36,1.36,0,0,1,1.33.58,1.07,1.07,0,0,1,.16.44h0a1.83,1.83,0,0,1,1.32.39,1.37,1.37,0,0,1,.51.93,2,2,0,0,1-.75,1.54c-2.84,2.8-7.06,4.42-10.77,5.85l-.5.2h0A11.23,11.23,0,0,1,94.07,137.68Zm.43-14c-.16,0-.41.31-.59.72A41.75,41.75,0,0,0,91.59,131a16.18,16.18,0,0,0-.43,2.39,4.37,4.37,0,0,0,.12,1.5,2.41,2.41,0,0,0,1.24,1.54c1.47.71,3.71,0,4.92-.43l.5-.19c3.62-1.4,7.73-3,10.43-5.63.2-.2.47-.5.45-.74a.38.38,0,0,0-.14-.25.86.86,0,0,0-.58-.17,1.94,1.94,0,0,0-.82.34,3.09,3.09,0,0,1-.51.36.5.5,0,0,1-.69-.72,4.31,4.31,0,0,1,1-.84c.17-.16.33-.33.49-.51s.21-.28.21-.34-.1-.14-.23-.16a1.46,1.46,0,0,0-.68.12,8.79,8.79,0,0,0-1.08.47c-.29.21-.59.4-.87.58a7.68,7.68,0,0,0-.78.54h0a.5.5,0,1,1-.66-.75h0a9.87,9.87,0,0,1,1.75-1.2c.56-.41,1-.87,1-1.28,0-.25-.11-.32-.14-.34s-.37-.16-1.08,0a9.54,9.54,0,0,0-3.53,2.12,10.87,10.87,0,0,1-4,2.4.5.5,0,0,1-.43-.08.53.53,0,0,1-.2-.39c0-.83,0-1.66.1-2.47.05-.58.09-1.16.1-1.74s-.09-.76-.2-.79Zm3.12,12.71h0Z" fill="#231f20"></path><path d="M95.17,128.84a4.63,4.63,0,0,1-.44-.26c-1.93-3.58-8.06-11.68-8.12-11.76a.5.5,0,1,1,.79-.6c.25.33,6.24,8.24,8.21,11.89a.49.49,0,0,1-.21.67A.46.46,0,0,1,95.17,128.84Z" fill="#fff"></path></g></svg>
